<svg width="551" height="562" viewBox="0 0 551 562" fill="none" xmlns="http://www.w3.org/2000/svg">
<path d="M513.927 0V5H519C520.2 5 521.379 5.07798 522.533 5.22852L523.179 0.271484C526.001 0.639543 528.707 1.3759 531.248 2.42969L529.334 7.04688C531.526 7.95599 533.575 9.14724 535.435 10.5762L538.479 6.6123C540.696 8.31576 542.683 10.3028 544.387 12.5195L540.424 15.5654C541.853 17.4249 543.044 19.4737 543.953 21.666L548.569 19.751C549.623 22.2923 550.359 24.9982 550.728 27.8203L545.771 28.4668C545.922 29.6208 546 30.8003 546 32V37.0146H551V47.0439H546V57.0732H551V67.1025H546V77.1318H551V87.1611H546V97.1904H551V107.22H546V117.248H551V127.277H546V137.307H551V147.336H546V157.365H551V167.395H546V177.424H551V187.453H546V197.482H551V207.512H546V217.541H551V227.57H546V237.6H551V247.628H546V257.657H551V267.687H546V277.716H551V287.745H546V297.702H551V307.587H546V317.473H551V327.357H546V337.242H551V347.127H546V357.013H551V366.897H546V376.782H551V386.667H546V396.553H551V406.438H546V416.322H551V426.207H546V436.093H551V445.978H546V455.862H551V465.747H546V475.633H551V485.518H546V495.402H551V505.287H546V515.173H551V525.058H546V530C546 531.2 545.922 532.379 545.771 533.533L550.728 534.179C550.359 537.001 549.623 539.707 548.569 542.248L543.953 540.334C543.044 542.526 541.853 544.575 540.424 546.435L544.387 549.479C542.683 551.696 540.696 553.683 538.479 555.387L535.435 551.424C533.575 552.853 531.526 554.044 529.334 554.953L531.248 559.569C528.707 560.623 526.001 561.359 523.179 561.728L522.533 556.771C521.379 556.922 520.2 557 519 557H513.928V562H503.781V557H493.636V562H483.49V557H473.344V562H463.198V557H453.052V562H442.906V557H432.761V562H422.614V557H412.469V562H402.323V557H392.177V562H382.031V557H371.886V562H361.739V557H351.594V562H341.448V557H331.302V562H321.156V557H311.011V562H300.864V557H290.719V562H280.573V557H270.427V562H260.281V557H250.136V562H239.989V557H229.844V562H219.698V557H209.552V562H199.406V557H189.261V562H179.114V557H168.969V562H158.823V557H148.677V562H138.531V557H128.386V562H118.239V557H108.094V562H97.9482V557H87.8018V562H77.6562V557H67.5107V562H57.3643V557H47.2188V562H37.0732V557H32C30.8003 557 29.6208 556.922 28.4668 556.771L27.8203 561.728C24.9982 561.359 22.2923 560.623 19.751 559.569L21.666 554.953C19.4737 554.044 17.4249 552.853 15.5654 551.424L12.5195 555.387C10.3028 553.683 8.31576 551.696 6.6123 549.479L10.5762 546.435C9.14724 544.575 7.95599 542.526 7.04688 540.334L2.42969 542.248C1.3759 539.707 0.639542 537.001 0.271484 534.179L5.22852 533.533C5.07798 532.379 5 531.2 5 530V525.02H0V515.06H5V505.1H0V495.14H5V485.18H0V475.22H5V465.26H0V455.3H5V445.34H0V435.38H5V425.42H0V415.46H5V405.5H0V395.54H5V385.58H0V375.62H5V365.66H0V355.7H5V345.74H0V335.78H5V325.82H0V315.86H5V305.9H0V295.94H5V285.98H0V276.021H5V266.06H0V256.1H5V246.14H0V236.18H5V226.22H0V216.26H5V206.3H0V196.34H5V186.38H0V176.42H5V166.46H0V156.5H5V146.54H0V136.58H5V126.62H0V116.66H5V106.7H0V96.7402H5V86.7803H0V76.8203H5V66.8604H0V56.9004H5V46.9404H0V36.9805H5V32C5 30.8003 5.07798 29.6208 5.22852 28.4668L0.271484 27.8203C0.639623 24.9983 1.37583 22.2922 2.42969 19.751L7.04688 21.666C7.95599 19.4737 9.14724 17.4249 10.5762 15.5654L6.6123 12.5195C8.31578 10.3028 10.3028 8.31578 12.5195 6.6123L15.5654 10.5762C17.4249 9.14724 19.4737 7.95599 21.666 7.04688L19.751 2.42969C22.2922 1.37583 24.9983 0.639624 27.8203 0.271484L28.4668 5.22852C29.6208 5.07798 30.8003 5 32 5H37.0723V0H47.2188V5H57.3643V0H67.5098V5H77.6562V0H87.8018V5H97.9482V0H108.094V5H118.239V0H128.386V5H138.531V0H148.677V5H158.823V0H168.969V5H179.114V0H189.261V5H199.406V0H209.552V5H219.698V0H229.844V5H239.989V0H250.136V5H260.281V0H270.427V5H280.573V0H290.719V5H300.864V0H311.011V5H321.156V0H331.302V5H341.448V0H351.594V5H361.739V0H371.886V5H382.031V0H392.177V5H402.323V0H412.469V5H422.614V0H432.761V5H442.906V0H453.052V5H463.198V0H473.344V5H483.489V0H493.636V5H503.781V0H513.927Z" stroke="#DA9100" stroke-opacity="0.25" stroke-width="10" stroke-dasharray="10 10"/>
</svg>
