<svg width="20" height="20" viewBox="0 0 20 20" fill="none" xmlns="http://www.w3.org/2000/svg">
<mask id="mask0_180_257" style="mask-type:alpha" maskUnits="userSpaceOnUse" x="0" y="0" width="20" height="20">
<rect width="20" height="20" fill="#D9D9D9"/>
</mask>
<g mask="url(#mask0_180_257)">
<path d="M10 18.3332C8.52778 18.3332 7.32639 18.1005 6.39583 17.6353C5.46528 17.17 5 16.5693 5 15.8332C5 15.3471 5.20139 14.9234 5.60417 14.5623C6.00694 14.2012 6.5625 13.9165 7.27083 13.7082L7.75 15.2915C7.51389 15.3609 7.29861 15.4478 7.10417 15.5519C6.90972 15.6561 6.77778 15.7498 6.70833 15.8332C6.88889 16.0554 7.30556 16.2498 7.95833 16.4165C8.61111 16.5832 9.29167 16.6665 10 16.6665C10.7083 16.6665 11.3924 16.5832 12.0521 16.4165C12.7118 16.2498 13.1319 16.0554 13.3125 15.8332C13.2431 15.7498 13.1111 15.6561 12.9167 15.5519C12.7222 15.4478 12.5069 15.3609 12.2708 15.2915L12.75 13.7082C13.4583 13.9165 14.0104 14.2012 14.4062 14.5623C14.8021 14.9234 15 15.3471 15 15.8332C15 16.5693 14.5347 17.17 13.6042 17.6353C12.6736 18.1005 11.4722 18.3332 10 18.3332ZM10 12.7707C10.25 12.3123 10.5139 11.8922 10.7917 11.5103C11.0694 11.1283 11.3403 10.7637 11.6042 10.4165C12.1181 9.74984 12.5278 9.14914 12.8333 8.61442C13.1389 8.0797 13.2917 7.4165 13.2917 6.62484C13.2917 5.70817 12.9722 4.93039 12.3333 4.2915C11.6944 3.65262 10.9167 3.33317 10 3.33317C9.08333 3.33317 8.30556 3.65262 7.66667 4.2915C7.02778 4.93039 6.70833 5.70817 6.70833 6.62484C6.70833 7.4165 6.86111 8.0797 7.16667 8.61442C7.47222 9.14914 7.88194 9.74984 8.39583 10.4165C8.65972 10.7637 8.93056 11.1283 9.20833 11.5103C9.48611 11.8922 9.75 12.3123 10 12.7707ZM10 15.8332C9.84722 15.8332 9.70833 15.788 9.58333 15.6978C9.45833 15.6075 9.36806 15.4859 9.3125 15.3332C8.99306 14.3471 8.59028 13.5207 8.10417 12.854C7.61806 12.1873 7.14583 11.5484 6.6875 10.9373C6.24306 10.3262 5.85764 9.69428 5.53125 9.0415C5.20486 8.38873 5.04167 7.58317 5.04167 6.62484C5.04167 5.23595 5.52083 4.06234 6.47917 3.104C7.4375 2.14567 8.61111 1.6665 10 1.6665C11.3889 1.6665 12.5625 2.14567 13.5208 3.104C14.4792 4.06234 14.9583 5.23595 14.9583 6.62484C14.9583 7.58317 14.7986 8.38873 14.4792 9.0415C14.1597 9.69428 13.7708 10.3262 13.3125 10.9373C12.8681 11.5484 12.3993 12.1873 11.9062 12.854C11.4132 13.5207 11.0069 14.3471 10.6875 15.3332C10.6319 15.4859 10.5417 15.6075 10.4167 15.6978C10.2917 15.788 10.1528 15.8332 10 15.8332ZM10 8.39567C10.4861 8.39567 10.9028 8.22206 11.25 7.87484C11.5972 7.52762 11.7708 7.11095 11.7708 6.62484C11.7708 6.13873 11.5972 5.72206 11.25 5.37484C10.9028 5.02762 10.4861 4.854 10 4.854C9.51389 4.854 9.09722 5.02762 8.75 5.37484C8.40278 5.72206 8.22917 6.13873 8.22917 6.62484C8.22917 7.11095 8.40278 7.52762 8.75 7.87484C9.09722 8.22206 9.51389 8.39567 10 8.39567Z" fill="#FEFEFE"/>
</g>
</svg>
