<svg width="20" height="20" viewBox="0 0 20 20" fill="none" xmlns="http://www.w3.org/2000/svg">
<mask id="mask0_123_86" style="mask-type:alpha" maskUnits="userSpaceOnUse" x="0" y="0" width="20" height="20">
<rect width="20" height="20" fill="#D9D9D9"/>
</mask>
<g mask="url(#mask0_123_86)">
<path d="M3.33332 16.6665C2.87499 16.6665 2.48263 16.5033 2.15624 16.1769C1.82985 15.8505 1.66666 15.4582 1.66666 14.9998V4.99984C1.66666 4.5415 1.82985 4.14914 2.15624 3.82275C2.48263 3.49637 2.87499 3.33317 3.33332 3.33317H11.75C11.6944 3.61095 11.6667 3.88873 11.6667 4.1665C11.6667 4.44428 11.6944 4.72206 11.75 4.99984H3.33332L9.99999 9.1665L13.0417 7.27067C13.2361 7.45123 13.4479 7.60748 13.6771 7.73942C13.9062 7.87136 14.1458 7.98595 14.3958 8.08317L9.99999 10.8332L3.33332 6.6665V14.9998H16.6667V8.24984C16.9861 8.18039 17.2847 8.08317 17.5625 7.95817C17.8403 7.83317 18.0972 7.68039 18.3333 7.49984V14.9998C18.3333 15.4582 18.1701 15.8505 17.8437 16.1769C17.5174 16.5033 17.125 16.6665 16.6667 16.6665H3.33332ZM15.8333 6.6665C15.1389 6.6665 14.5486 6.42345 14.0625 5.93734C13.5764 5.45123 13.3333 4.86095 13.3333 4.1665C13.3333 3.47206 13.5764 2.88178 14.0625 2.39567C14.5486 1.90956 15.1389 1.6665 15.8333 1.6665C16.5278 1.6665 17.118 1.90956 17.6042 2.39567C18.0903 2.88178 18.3333 3.47206 18.3333 4.1665C18.3333 4.86095 18.0903 5.45123 17.6042 5.93734C17.118 6.42345 16.5278 6.6665 15.8333 6.6665Z" fill="#FEFEFE"/>
</g>
</svg>
