<svg width="21" height="20" viewBox="0 0 21 20" fill="none" xmlns="http://www.w3.org/2000/svg">
<mask id="mask0_178_200" style="mask-type:alpha" maskUnits="userSpaceOnUse" x="0" y="0" width="21" height="20">
<rect x="0.5" width="20" height="20" fill="#D9D9D9"/>
</mask>
<g mask="url(#mask0_178_200)">
<path d="M10.5 18.3333C9.02778 18.3333 7.82639 18.1007 6.89583 17.6354C5.96528 17.1701 5.5 16.5694 5.5 15.8333C5.5 15.3472 5.70139 14.9236 6.10417 14.5625C6.50694 14.2014 7.0625 13.9167 7.77083 13.7083L8.25 15.2917C8.01389 15.3611 7.79861 15.4479 7.60417 15.5521C7.40972 15.6563 7.27778 15.75 7.20833 15.8333C7.38889 16.0556 7.80556 16.25 8.45833 16.4167C9.11111 16.5833 9.79167 16.6667 10.5 16.6667C11.2083 16.6667 11.8924 16.5833 12.5521 16.4167C13.2118 16.25 13.6319 16.0556 13.8125 15.8333C13.7431 15.75 13.6111 15.6563 13.4167 15.5521C13.2222 15.4479 13.0069 15.3611 12.7708 15.2917L13.25 13.7083C13.9583 13.9167 14.5104 14.2014 14.9062 14.5625C15.3021 14.9236 15.5 15.3472 15.5 15.8333C15.5 16.5694 15.0347 17.1701 14.1042 17.6354C13.1736 18.1007 11.9722 18.3333 10.5 18.3333ZM10.5 12.7708C10.75 12.3125 11.0139 11.8924 11.2917 11.5104C11.5694 11.1285 11.8403 10.7639 12.1042 10.4167C12.6181 9.75001 13.0278 9.14931 13.3333 8.61459C13.6389 8.07987 13.7917 7.41667 13.7917 6.62501C13.7917 5.70834 13.4722 4.93056 12.8333 4.29167C12.1944 3.65278 11.4167 3.33334 10.5 3.33334C9.58333 3.33334 8.80556 3.65278 8.16667 4.29167C7.52778 4.93056 7.20833 5.70834 7.20833 6.62501C7.20833 7.41667 7.36111 8.07987 7.66667 8.61459C7.97222 9.14931 8.38194 9.75001 8.89583 10.4167C9.15972 10.7639 9.43056 11.1285 9.70833 11.5104C9.98611 11.8924 10.25 12.3125 10.5 12.7708ZM10.5 15.8333C10.3472 15.8333 10.2083 15.7882 10.0833 15.6979C9.95833 15.6076 9.86806 15.4861 9.8125 15.3333C9.49306 14.3472 9.09028 13.5208 8.60417 12.8542C8.11806 12.1875 7.64583 11.5486 7.1875 10.9375C6.74306 10.3264 6.35764 9.69445 6.03125 9.04167C5.70486 8.38889 5.54167 7.58334 5.54167 6.62501C5.54167 5.23612 6.02083 4.06251 6.97917 3.10417C7.9375 2.14584 9.11111 1.66667 10.5 1.66667C11.8889 1.66667 13.0625 2.14584 14.0208 3.10417C14.9792 4.06251 15.4583 5.23612 15.4583 6.62501C15.4583 7.58334 15.2986 8.38889 14.9792 9.04167C14.6597 9.69445 14.2708 10.3264 13.8125 10.9375C13.3681 11.5486 12.8993 12.1875 12.4062 12.8542C11.9132 13.5208 11.5069 14.3472 11.1875 15.3333C11.1319 15.4861 11.0417 15.6076 10.9167 15.6979C10.7917 15.7882 10.6528 15.8333 10.5 15.8333ZM10.5 8.39584C10.9861 8.39584 11.4028 8.22223 11.75 7.87501C12.0972 7.52778 12.2708 7.11112 12.2708 6.62501C12.2708 6.13889 12.0972 5.72223 11.75 5.37501C11.4028 5.02778 10.9861 4.85417 10.5 4.85417C10.0139 4.85417 9.59722 5.02778 9.25 5.37501C8.90278 5.72223 8.72917 6.13889 8.72917 6.62501C8.72917 7.11112 8.90278 7.52778 9.25 7.87501C9.59722 8.22223 10.0139 8.39584 10.5 8.39584Z" fill="#141414"/>
</g>
</svg>
