<svg width="20" height="20" viewBox="0 0 20 20" fill="none" xmlns="http://www.w3.org/2000/svg">
<mask id="mask0_178_213" style="mask-type:alpha" maskUnits="userSpaceOnUse" x="0" y="0" width="20" height="20">
<rect width="20" height="20" fill="#D9D9D9"/>
</mask>
<g mask="url(#mask0_178_213)">
<path d="M3.33317 16.6667C2.87484 16.6667 2.48248 16.5035 2.15609 16.1771C1.8297 15.8507 1.6665 15.4583 1.6665 15V5C1.6665 4.54166 1.8297 4.1493 2.15609 3.82291C2.48248 3.49653 2.87484 3.33333 3.33317 3.33333H11.7498C11.6943 3.61111 11.6665 3.88889 11.6665 4.16666C11.6665 4.44444 11.6943 4.72222 11.7498 5H3.33317L9.99984 9.16666L13.0415 7.27083C13.2359 7.45139 13.4478 7.60764 13.6769 7.73958C13.9061 7.87152 14.1457 7.98611 14.3957 8.08333L9.99984 10.8333L3.33317 6.66666V15H16.6665V8.25C16.9859 8.18055 17.2846 8.08333 17.5623 7.95833C17.8401 7.83333 18.0971 7.68055 18.3332 7.5V15C18.3332 15.4583 18.17 15.8507 17.8436 16.1771C17.5172 16.5035 17.1248 16.6667 16.6665 16.6667H3.33317ZM15.8332 6.66666C15.1387 6.66666 14.5484 6.42361 14.0623 5.9375C13.5762 5.45139 13.3332 4.86111 13.3332 4.16666C13.3332 3.47222 13.5762 2.88194 14.0623 2.39583C14.5484 1.90972 15.1387 1.66666 15.8332 1.66666C16.5276 1.66666 17.1179 1.90972 17.604 2.39583C18.0901 2.88194 18.3332 3.47222 18.3332 4.16666C18.3332 4.86111 18.0901 5.45139 17.604 5.9375C17.1179 6.42361 16.5276 6.66666 15.8332 6.66666Z" fill="#141414"/>
</g>
</svg>
