<svg width="50" height="50" viewBox="0 0 50 50" fill="none" xmlns="http://www.w3.org/2000/svg">
<mask id="mask0_62_310" style="mask-type:alpha" maskUnits="userSpaceOnUse" x="0" y="0" width="50" height="50">
<rect width="50" height="50" fill="#D9D9D9"/>
</mask>
<g mask="url(#mask0_62_310)">
<path d="M12.5 29.1666H29.1667V25H12.5V29.1666ZM12.5 22.9166H37.5V18.75H12.5V22.9166ZM12.5 16.6666H37.5V12.5H12.5V16.6666ZM4.16667 45.8333V8.33329C4.16667 7.18746 4.57466 6.20656 5.39063 5.39058C6.2066 4.57461 7.18751 4.16663 8.33334 4.16663H41.6667C42.8125 4.16663 43.7934 4.57461 44.6094 5.39058C45.4254 6.20656 45.8333 7.18746 45.8333 8.33329V33.3333C45.8333 34.4791 45.4254 35.46 44.6094 36.276C43.7934 37.092 42.8125 37.5 41.6667 37.5H12.5L4.16667 45.8333ZM10.7292 33.3333H41.6667V8.33329H8.33334V35.677L10.7292 33.3333Z" fill="#1C1B1F"/>
</g>
</svg>
