<svg width="50" height="50" viewBox="0 0 50 50" fill="none" xmlns="http://www.w3.org/2000/svg">
<mask id="mask0_61_18" style="mask-type:alpha" maskUnits="userSpaceOnUse" x="0" y="0" width="50" height="50">
<rect width="50" height="50" fill="#D9D9D9"/>
</mask>
<g mask="url(#mask0_61_18)">
<path d="M25 18.75L17.7083 11.4583L25 4.16663L32.2916 11.4583L25 18.75ZM2.08331 41.6666V33.3333C2.08331 32.1527 2.4913 31.1632 3.30727 30.3645C4.12324 29.5659 5.10415 29.1666 6.24998 29.1666H13.0729C13.7673 29.1666 14.4271 29.3402 15.0521 29.6875C15.6771 30.0347 16.1805 30.5034 16.5625 31.0937C17.5694 32.4479 18.8107 33.5069 20.2864 34.2708C21.7621 35.0347 23.3333 35.4166 25 35.4166C26.7014 35.4166 28.2899 35.0347 29.7656 34.2708C31.2413 33.5069 32.4653 32.4479 33.4375 31.0937C33.8889 30.5034 34.4184 30.0347 35.026 29.6875C35.6337 29.3402 36.2673 29.1666 36.9271 29.1666H43.75C44.9305 29.1666 45.9201 29.5659 46.7187 30.3645C47.5173 31.1632 47.9166 32.1527 47.9166 33.3333V41.6666H33.3333V36.927C32.118 37.7951 30.8073 38.4548 29.401 38.9062C27.9948 39.3576 26.5278 39.5833 25 39.5833C23.5069 39.5833 22.0486 39.3489 20.625 38.8802C19.2014 38.4114 17.8819 37.743 16.6666 36.875V41.6666H2.08331ZM8.33331 27.0833C6.5972 27.0833 5.12151 26.4757 3.90623 25.2604C2.69095 24.0451 2.08331 22.5694 2.08331 20.8333C2.08331 19.0625 2.69095 17.5781 3.90623 16.3802C5.12151 15.1823 6.5972 14.5833 8.33331 14.5833C10.1041 14.5833 11.5885 15.1823 12.7864 16.3802C13.9844 17.5781 14.5833 19.0625 14.5833 20.8333C14.5833 22.5694 13.9844 24.0451 12.7864 25.2604C11.5885 26.4757 10.1041 27.0833 8.33331 27.0833ZM41.6666 27.0833C39.9305 27.0833 38.4548 26.4757 37.2396 25.2604C36.0243 24.0451 35.4166 22.5694 35.4166 20.8333C35.4166 19.0625 36.0243 17.5781 37.2396 16.3802C38.4548 15.1823 39.9305 14.5833 41.6666 14.5833C43.4375 14.5833 44.9219 15.1823 46.1198 16.3802C47.3177 17.5781 47.9166 19.0625 47.9166 20.8333C47.9166 22.5694 47.3177 24.0451 46.1198 25.2604C44.9219 26.4757 43.4375 27.0833 41.6666 27.0833Z" fill="#1C1B1F"/>
</g>
</svg>
