<svg width="50" height="50" viewBox="0 0 50 50" fill="none" xmlns="http://www.w3.org/2000/svg">
<mask id="mask0_62_56" style="mask-type:alpha" maskUnits="userSpaceOnUse" x="0" y="0" width="50" height="50">
<rect width="50" height="50" fill="#D9D9D9"/>
</mask>
<g mask="url(#mask0_62_56)">
<path d="M12.5 45.8333V36.875C10.5208 35.0694 8.98438 32.96 7.89062 30.5468C6.79687 28.1336 6.25 25.5902 6.25 22.9166C6.25 17.7083 8.07292 13.2812 11.7188 9.63538C15.3646 5.98954 19.7917 4.16663 25 4.16663C29.3403 4.16663 33.1858 5.44267 36.5365 7.99475C39.8872 10.5468 42.066 13.8715 43.0729 17.9687L45.7812 28.6458C45.9549 29.3055 45.8333 29.9045 45.4167 30.4427C45 30.9809 44.4444 31.25 43.75 31.25H39.5833V37.5C39.5833 38.6458 39.1753 39.6267 38.3594 40.4427C37.5434 41.2586 36.5625 41.6666 35.4167 41.6666H31.25V45.8333H27.0833V37.5H35.4167V27.0833H41.0417L39.0625 19.0104C38.2639 15.8507 36.5625 13.2812 33.9583 11.302C31.3542 9.32288 28.3681 8.33329 25 8.33329C20.9722 8.33329 17.5347 9.73954 14.6875 12.552C11.8403 15.3645 10.4167 18.7847 10.4167 22.8125C10.4167 24.8958 10.842 26.875 11.6927 28.75C12.5434 30.625 13.75 32.2916 15.3125 33.75L16.6667 35V45.8333H12.5ZM22.9167 31.25H27.0833L27.3958 28.6458C27.6736 28.5416 27.9253 28.4201 28.151 28.2812C28.3767 28.1423 28.5764 27.9861 28.75 27.8125L31.1458 28.8541L33.2292 25.3125L31.1458 23.75C31.2153 23.4722 31.25 23.1944 31.25 22.9166C31.25 22.6388 31.2153 22.3611 31.1458 22.0833L33.2292 20.5208L31.1458 16.9791L28.75 18.0208C28.5764 17.8472 28.3767 17.6909 28.151 17.552C27.9253 17.4132 27.6736 17.2916 27.3958 17.1875L27.0833 14.5833H22.9167L22.6042 17.1875C22.3264 17.2916 22.0747 17.4132 21.849 17.552C21.6233 17.6909 21.4236 17.8472 21.25 18.0208L18.8542 16.9791L16.7708 20.5208L18.8542 22.0833C18.7847 22.3611 18.75 22.6388 18.75 22.9166C18.75 23.1944 18.7847 23.4722 18.8542 23.75L16.7708 25.3125L18.8542 28.8541L21.25 27.8125C21.4236 27.9861 21.6233 28.1423 21.849 28.2812C22.0747 28.4201 22.3264 28.5416 22.6042 28.6458L22.9167 31.25ZM25 26.0416C24.1319 26.0416 23.3941 25.7378 22.7865 25.1302C22.1788 24.5225 21.875 23.7847 21.875 22.9166C21.875 22.0486 22.1788 21.3107 22.7865 20.7031C23.3941 20.0954 24.1319 19.7916 25 19.7916C25.8681 19.7916 26.6059 20.0954 27.2135 20.7031C27.8212 21.3107 28.125 22.0486 28.125 22.9166C28.125 23.7847 27.8212 24.5225 27.2135 25.1302C26.6059 25.7378 25.8681 26.0416 25 26.0416Z" fill="#1C1B1F"/>
</g>
</svg>
