<svg width="50" height="50" viewBox="0 0 50 50" fill="none" xmlns="http://www.w3.org/2000/svg">
<mask id="mask0_62_74" style="mask-type:alpha" maskUnits="userSpaceOnUse" x="0" y="0" width="50" height="50">
<rect width="50" height="50" fill="#D9D9D9"/>
</mask>
<g mask="url(#mask0_62_74)">
<path d="M18.75 43.75V33.3333C16.5972 33.1597 14.4878 32.9166 12.4219 32.6041C10.3559 32.2916 8.29861 31.8402 6.25 31.25L7.29167 27.0833C10.1736 27.8819 13.0903 28.4288 16.0417 28.7239C18.9931 29.0191 21.9792 29.1666 25 29.1666C27.9861 29.1666 30.9549 29.0191 33.9062 28.7239C36.8576 28.4288 39.7917 27.8819 42.7083 27.0833L43.75 31.25C41.6667 31.8402 39.592 32.2916 37.526 32.6041C35.4601 32.9166 33.3681 33.1597 31.25 33.3333V43.75H18.75ZM25 27.0833C23.8194 27.0833 22.8299 26.684 22.0312 25.8854C21.2326 25.0868 20.8333 24.0972 20.8333 22.9166C20.8333 21.7708 21.2326 20.7899 22.0312 19.9739C22.8299 19.1579 23.8194 18.75 25 18.75C26.1458 18.75 27.1267 19.1579 27.9427 19.9739C28.7587 20.7899 29.1667 21.7708 29.1667 22.9166C29.1667 24.0972 28.7587 25.0868 27.9427 25.8854C27.1267 26.684 26.1458 27.0833 25 27.0833ZM9.375 20.8333C8.47222 20.8333 7.72569 20.5382 7.13542 19.9479C6.54514 19.3576 6.25 18.6111 6.25 17.7083C6.25 16.8402 6.54514 16.1024 7.13542 15.4948C7.72569 14.8871 8.47222 14.5833 9.375 14.5833C10.2431 14.5833 10.9809 14.8871 11.5885 15.4948C12.1962 16.1024 12.5 16.8402 12.5 17.7083C12.5 18.6111 12.1962 19.3576 11.5885 19.9479C10.9809 20.5382 10.2431 20.8333 9.375 20.8333ZM40.625 20.8333C39.7222 20.8333 38.9757 20.5382 38.3854 19.9479C37.7951 19.3576 37.5 18.6111 37.5 17.7083C37.5 16.8402 37.7951 16.1024 38.3854 15.4948C38.9757 14.8871 39.7222 14.5833 40.625 14.5833C41.4931 14.5833 42.2309 14.8871 42.8385 15.4948C43.4462 16.1024 43.75 16.8402 43.75 17.7083C43.75 18.6111 43.4462 19.3576 42.8385 19.9479C42.2309 20.5382 41.4931 20.8333 40.625 20.8333ZM15.1042 13.0208C14.2014 13.0208 13.4549 12.7257 12.8646 12.1354C12.2743 11.5451 11.9792 10.7986 11.9792 9.89579C11.9792 9.02774 12.2743 8.28989 12.8646 7.68225C13.4549 7.07461 14.2014 6.77079 15.1042 6.77079C15.9722 6.77079 16.7101 7.07461 17.3177 7.68225C17.9253 8.28989 18.2292 9.02774 18.2292 9.89579C18.2292 10.7986 17.9253 11.5451 17.3177 12.1354C16.7101 12.7257 15.9722 13.0208 15.1042 13.0208ZM34.8958 13.0208C33.9931 13.0208 33.2465 12.7257 32.6562 12.1354C32.066 11.5451 31.7708 10.7986 31.7708 9.89579C31.7708 9.02774 32.066 8.28989 32.6562 7.68225C33.2465 7.07461 33.9931 6.77079 34.8958 6.77079C35.7639 6.77079 36.5017 7.07461 37.1094 7.68225C37.717 8.28989 38.0208 9.02774 38.0208 9.89579C38.0208 10.7986 37.717 11.5451 37.1094 12.1354C36.5017 12.7257 35.7639 13.0208 34.8958 13.0208ZM25 10.4166C24.0972 10.4166 23.3507 10.1215 22.7604 9.53121C22.1701 8.94093 21.875 8.1944 21.875 7.29163C21.875 6.42357 22.1701 5.68572 22.7604 5.07808C23.3507 4.47045 24.0972 4.16663 25 4.16663C25.8681 4.16663 26.6059 4.47045 27.2135 5.07808C27.8212 5.68572 28.125 6.42357 28.125 7.29163C28.125 8.1944 27.8212 8.94093 27.2135 9.53121C26.6059 10.1215 25.8681 10.4166 25 10.4166Z" fill="#1C1B1F"/>
</g>
</svg>
