<svg width="50" height="50" viewBox="0 0 50 50" fill="none" xmlns="http://www.w3.org/2000/svg">
<mask id="mask0_62_304" style="mask-type:alpha" maskUnits="userSpaceOnUse" x="0" y="0" width="50" height="50">
<rect width="50" height="50" fill="#D9D9D9"/>
</mask>
<g mask="url(#mask0_62_304)">
<path d="M22.9167 43.75V39.5833H39.5834V24.7917C39.5834 20.7292 38.1684 17.283 35.3386 14.4531C32.5087 11.6233 29.0625 10.2083 25 10.2083C20.9375 10.2083 17.4913 11.6233 14.6615 14.4531C11.8316 17.283 10.4167 20.7292 10.4167 24.7917V37.5H8.33335C7.18752 37.5 6.20662 37.092 5.39065 36.276C4.57467 35.4601 4.16669 34.4792 4.16669 33.3333V29.1667C4.16669 28.4375 4.34898 27.7517 4.71356 27.1094C5.07815 26.467 5.5903 25.9549 6.25002 25.5729L6.40627 22.8125C6.68405 20.4514 7.36981 18.2639 8.46356 16.25C9.55731 14.2361 10.9288 12.4826 12.5781 10.9896C14.2275 9.49653 16.1198 8.33333 18.2552 7.5C20.3906 6.66667 22.6389 6.25 25 6.25C27.3611 6.25 29.6007 6.66667 31.7188 7.5C33.8368 8.33333 35.7292 9.48785 37.3959 10.9635C39.0625 12.4392 40.4341 14.184 41.5104 16.1979C42.5868 18.2118 43.2813 20.3993 43.5938 22.7604L43.75 25.4688C44.4097 25.7812 44.9219 26.25 45.2865 26.875C45.6511 27.5 45.8334 28.1597 45.8334 28.8542V33.6458C45.8334 34.3403 45.6511 35 45.2865 35.625C44.9219 36.25 44.4097 36.7188 43.75 37.0312V39.5833C43.75 40.7292 43.342 41.7101 42.5261 42.526C41.7101 43.342 40.7292 43.75 39.5834 43.75H22.9167ZM18.75 29.1667C18.1597 29.1667 17.665 28.967 17.2656 28.5677C16.8663 28.1684 16.6667 27.6736 16.6667 27.0833C16.6667 26.4931 16.8663 25.9983 17.2656 25.599C17.665 25.1997 18.1597 25 18.75 25C19.3403 25 19.8351 25.1997 20.2344 25.599C20.6337 25.9983 20.8334 26.4931 20.8334 27.0833C20.8334 27.6736 20.6337 28.1684 20.2344 28.5677C19.8351 28.967 19.3403 29.1667 18.75 29.1667ZM31.25 29.1667C30.6597 29.1667 30.165 28.967 29.7656 28.5677C29.3663 28.1684 29.1667 27.6736 29.1667 27.0833C29.1667 26.4931 29.3663 25.9983 29.7656 25.599C30.165 25.1997 30.6597 25 31.25 25C31.8403 25 32.3351 25.1997 32.7344 25.599C33.1337 25.9983 33.3334 26.4931 33.3334 27.0833C33.3334 27.6736 33.1337 28.1684 32.7344 28.5677C32.3351 28.967 31.8403 29.1667 31.25 29.1667ZM12.5521 25.9375C12.309 22.2569 13.4202 19.0972 15.8854 16.4583C18.3507 13.8194 21.4236 12.5 25.1042 12.5C28.1945 12.5 30.9115 13.4809 33.2552 15.4427C35.599 17.4045 37.0139 19.9132 37.5 22.9688C34.3403 22.934 31.4323 22.0833 28.7761 20.4167C26.1198 18.75 24.0799 16.4931 22.6563 13.6458C22.1007 16.4236 20.9288 18.8976 19.1406 21.0677C17.3525 23.2378 15.1563 24.8611 12.5521 25.9375Z" fill="#1C1B1F"/>
</g>
</svg>
