<svg width="15" height="15" viewBox="0 0 15 15" fill="none" xmlns="http://www.w3.org/2000/svg">
<mask id="mask0_43_154" style="mask-type:alpha" maskUnits="userSpaceOnUse" x="0" y="0" width="15" height="15">
<rect width="15" height="15" fill="#D9D9D9"/>
</mask>
<g mask="url(#mask0_43_154)">
<path d="M4.375 5.625C4.03125 5.625 3.73698 5.5026 3.49219 5.25781C3.2474 5.01302 3.125 4.71875 3.125 4.375C3.125 4.03125 3.2474 3.73698 3.49219 3.49219C3.73698 3.2474 4.03125 3.125 4.375 3.125C4.71875 3.125 5.01302 3.2474 5.25781 3.49219C5.5026 3.73698 5.625 4.03125 5.625 4.375C5.625 4.71875 5.5026 5.01302 5.25781 5.25781C5.01302 5.5026 4.71875 5.625 4.375 5.625ZM3.125 13.75C2.94792 13.75 2.79948 13.6901 2.67969 13.5703C2.5599 13.4505 2.5 13.3021 2.5 13.125C2.15625 13.125 1.86198 13.0026 1.61719 12.7578C1.3724 12.513 1.25 12.2188 1.25 11.875V8.125H3.125V7.65625C3.125 7.26042 3.26042 6.92708 3.53125 6.65625C3.80208 6.38542 4.13542 6.25 4.53125 6.25C4.73958 6.25 4.93229 6.29167 5.10938 6.375C5.28646 6.45833 5.44792 6.57292 5.59375 6.71875L6.46875 7.6875C6.55208 7.77083 6.63281 7.84896 6.71094 7.92188C6.78906 7.99479 6.875 8.0625 6.96875 8.125H11.25V3.03125C11.25 2.88542 11.1979 2.76042 11.0938 2.65625C10.9896 2.55208 10.8646 2.5 10.7188 2.5C10.6562 2.5 10.5964 2.51302 10.5391 2.53906C10.4818 2.5651 10.4271 2.60417 10.375 2.65625L9.59375 3.4375C9.64583 3.61458 9.65625 3.78906 9.625 3.96094C9.59375 4.13281 9.53125 4.29167 9.4375 4.4375L7.71875 2.6875C7.86458 2.59375 8.02083 2.53385 8.1875 2.50781C8.35417 2.48177 8.52083 2.5 8.6875 2.5625L9.46875 1.78125C9.63542 1.61458 9.82552 1.48438 10.0391 1.39062C10.2526 1.29688 10.4792 1.25 10.7188 1.25C11.2188 1.25 11.6406 1.42187 11.9844 1.76562C12.3281 2.10938 12.5 2.53125 12.5 3.03125V8.125H13.75V11.875C13.75 12.2188 13.6276 12.513 13.3828 12.7578C13.138 13.0026 12.8438 13.125 12.5 13.125C12.5 13.3021 12.4401 13.4505 12.3203 13.5703C12.2005 13.6901 12.0521 13.75 11.875 13.75H3.125ZM2.5 11.875H12.5V9.375H2.5V11.875Z" fill="#141414"/>
</g>
</svg>
