<svg width="15" height="15" viewBox="0 0 15 15" fill="none" xmlns="http://www.w3.org/2000/svg">
<mask id="mask0_43_164" style="mask-type:alpha" maskUnits="userSpaceOnUse" x="0" y="0" width="15" height="15">
<rect width="15" height="15" fill="#D9D9D9"/>
</mask>
<g mask="url(#mask0_43_164)">
<path d="M3.125 13.125C2.94792 13.125 2.79948 13.0651 2.67969 12.9453C2.5599 12.8255 2.5 12.6771 2.5 12.5V11.875C1.97917 11.875 1.53646 11.6927 1.17188 11.3281C0.807292 10.9635 0.625 10.5208 0.625 10V6.875C0.625 6.35417 0.807292 5.91146 1.17188 5.54688C1.53646 5.18229 1.97917 5 2.5 5V3.75C2.5 3.22917 2.68229 2.78646 3.04688 2.42188C3.41146 2.05729 3.85417 1.875 4.375 1.875H10.625C11.1458 1.875 11.5885 2.05729 11.9531 2.42188C12.3177 2.78646 12.5 3.22917 12.5 3.75V5C13.0208 5 13.4635 5.18229 13.8281 5.54688C14.1927 5.91146 14.375 6.35417 14.375 6.875V10C14.375 10.5208 14.1927 10.9635 13.8281 11.3281C13.4635 11.6927 13.0208 11.875 12.5 11.875V12.5C12.5 12.6771 12.4401 12.8255 12.3203 12.9453C12.2005 13.0651 12.0521 13.125 11.875 13.125C11.6979 13.125 11.5495 13.0651 11.4297 12.9453C11.3099 12.8255 11.25 12.6771 11.25 12.5V11.875H3.75V12.5C3.75 12.6771 3.6901 12.8255 3.57031 12.9453C3.45052 13.0651 3.30208 13.125 3.125 13.125ZM2.5 10.625H12.5C12.6771 10.625 12.8255 10.5651 12.9453 10.4453C13.0651 10.3255 13.125 10.1771 13.125 10V6.875C13.125 6.69792 13.0651 6.54948 12.9453 6.42969C12.8255 6.3099 12.6771 6.25 12.5 6.25C12.3229 6.25 12.1745 6.3099 12.0547 6.42969C11.9349 6.54948 11.875 6.69792 11.875 6.875V9.375H3.125V6.875C3.125 6.69792 3.0651 6.54948 2.94531 6.42969C2.82552 6.3099 2.67708 6.25 2.5 6.25C2.32292 6.25 2.17448 6.3099 2.05469 6.42969C1.9349 6.54948 1.875 6.69792 1.875 6.875V10C1.875 10.1771 1.9349 10.3255 2.05469 10.4453C2.17448 10.5651 2.32292 10.625 2.5 10.625ZM4.375 8.125H10.625V6.875C10.625 6.59375 10.6823 6.33854 10.7969 6.10938C10.9115 5.88021 11.0625 5.67708 11.25 5.5V3.75C11.25 3.57292 11.1901 3.42448 11.0703 3.30469C10.9505 3.1849 10.8021 3.125 10.625 3.125H4.375C4.19792 3.125 4.04948 3.1849 3.92969 3.30469C3.8099 3.42448 3.75 3.57292 3.75 3.75V5.5C3.9375 5.67708 4.08854 5.88021 4.20312 6.10938C4.31771 6.33854 4.375 6.59375 4.375 6.875V8.125Z" fill="#141414"/>
</g>
</svg>
