<svg width="1082" height="266" viewBox="0 0 1082 266" fill="none" xmlns="http://www.w3.org/2000/svg">
<path opacity="0.4" d="M0 125.5L1.63505 102.149C7.46246 18.9268 106.628 -20.9905 168.488 34.986L279.474 135.418C322.594 174.437 390.666 164.052 420.19 113.951C457.464 50.6978 550.22 54.6043 582.043 120.767L615.75 190.846C632.407 225.478 667.438 247.5 705.867 247.5H788.5C833.843 247.5 851.298 188.436 813.239 163.789L752.259 124.297C682.992 79.4391 740.328 -26.5813 815.786 6.82892L1030.2 101.764C1114.73 139.191 1088.02 265.5 995.571 265.5H100C44.7716 265.5 0 220.728 0 165.5V125.5Z" fill="#DA9100" fill-opacity="0.75"/>
</svg>
