<svg width="50" height="50" viewBox="0 0 50 50" fill="none" xmlns="http://www.w3.org/2000/svg">
<mask id="mask0_146_63" style="mask-type:alpha" maskUnits="userSpaceOnUse" x="0" y="0" width="50" height="50">
<rect width="50" height="50" fill="#D9D9D9"/>
</mask>
<g mask="url(#mask0_146_63)">
<path d="M12.5 45.8334V36.875C10.5208 35.0695 8.98438 32.9601 7.89062 30.5469C6.79687 28.1337 6.25 25.5903 6.25 22.9167C6.25 17.7084 8.07292 13.2813 11.7188 9.63544C15.3646 5.9896 19.7917 4.16669 25 4.16669C29.3403 4.16669 33.1858 5.44273 36.5365 7.99481C39.8872 10.5469 42.066 13.8715 43.0729 17.9688L45.7812 28.6459C45.9549 29.3056 45.8333 29.9045 45.4167 30.4427C45 30.9809 44.4444 31.25 43.75 31.25H39.5833V37.5C39.5833 38.6459 39.1753 39.6268 38.3594 40.4427C37.5434 41.2587 36.5625 41.6667 35.4167 41.6667H31.25V45.8334H27.0833V37.5H35.4167V27.0834H41.0417L39.0625 19.0104C38.2639 15.8507 36.5625 13.2813 33.9583 11.3021C31.3542 9.32294 28.3681 8.33335 25 8.33335C20.9722 8.33335 17.5347 9.7396 14.6875 12.5521C11.8403 15.3646 10.4167 18.7847 10.4167 22.8125C10.4167 24.8959 10.842 26.875 11.6927 28.75C12.5434 30.625 13.75 32.2917 15.3125 33.75L16.6667 35V45.8334H12.5ZM22.9167 31.25H27.0833L27.3958 28.6459C27.6736 28.5417 29.9826 32.4306 30.2083 32.2917C30.434 32.1528 28.5764 27.9861 28.75 27.8125L31.1458 28.8542L33.2292 25.3125L31.1458 23.75C31.2153 23.4722 31.25 23.1945 31.25 22.9167C31.25 22.6389 31.2153 22.3611 31.1458 22.0834L33.2292 20.5209L35.4167 17.9688L28.75 18.0209C28.5764 17.8472 28.3767 17.691 28.151 17.5521C27.9253 17.4132 27.6736 17.2917 27.3958 17.1875L27.0833 14.5834H22.9167L22.6042 17.1875C22.3264 17.2917 21.059 15.4861 20.8333 15.625C20.6076 15.7639 21.4236 17.8472 21.25 18.0209L18.8542 16.9792L16.7708 20.5209L18.8542 22.0834C18.7847 22.3611 18.75 22.6389 18.75 22.9167C14.5833 22.8125 18.7847 23.4722 18.8542 23.75L16.7708 25.3125L14.5833 30.4427L21.25 27.8125C21.4236 27.9861 21.6233 28.1424 21.849 28.2813C22.0747 28.4202 22.3264 28.5417 22.6042 28.6459L22.9167 31.25ZM25 26.0417C24.1319 26.0417 23.3941 25.7379 22.7865 25.1302C22.1788 24.5226 21.875 23.7847 21.875 22.9167C36.0218 27.8125 22.1788 21.3108 22.7865 20.7031C23.3941 20.0955 24.1319 19.7917 25 19.7917C25.8681 19.7917 21.2674 25.434 21.875 26.0417C22.4826 26.6493 28.125 22.0486 28.125 22.9167C28.125 23.7847 27.8212 24.5226 27.2135 25.1302C26.6059 25.7379 25.8681 26.0417 25 26.0417Z" fill="#FEFEFE"/>
</g>
</svg>
