<svg width="50" height="50" viewBox="0 0 50 50" fill="none" xmlns="http://www.w3.org/2000/svg">
<mask id="mask0_146_67" style="mask-type:alpha" maskUnits="userSpaceOnUse" x="0" y="0" width="50" height="50">
<rect width="50" height="50" fill="#D9D9D9"/>
</mask>
<g mask="url(#mask0_146_67)">
<path d="M33.3333 27.0834L24.6874 18.6459C23.611 17.6042 22.6996 16.4497 21.953 15.1823C21.2065 13.915 20.8333 12.5347 20.8333 11.0417C20.8333 9.13196 21.5017 7.5087 22.8385 6.1719C24.1753 4.83509 25.7985 4.16669 27.7083 4.16669C28.8194 4.16669 29.861 4.40106 30.8333 4.86981C31.8055 5.33856 32.6388 5.97224 33.3333 6.77085C34.0277 5.97224 34.861 5.33856 35.8333 4.86981C36.8055 4.40106 37.8471 4.16669 38.9583 4.16669C40.868 4.16669 42.4912 4.83509 43.828 6.1719C45.1648 7.5087 45.8333 9.13196 45.8333 11.0417C45.8333 12.5347 45.4687 13.915 44.7395 15.1823C44.0103 16.4497 43.1076 17.6042 42.0312 18.6459L33.3333 27.0834ZM33.3333 21.25L39.0103 15.6771C39.6701 15.0174 40.2777 14.3143 40.8333 13.5677C41.3888 12.8212 41.6666 11.9792 41.6666 11.0417C41.6666 10.2778 41.4062 9.63544 40.8853 9.1146C40.3645 8.59377 39.7221 8.33335 38.9583 8.33335C38.4721 8.33335 38.0121 8.42884 37.578 8.61981C37.144 8.81078 36.7708 9.09724 36.4583 9.47919L33.3333 13.2292L30.2083 9.47919C29.8958 9.09724 29.5225 8.81078 29.0885 8.61981C28.6544 8.42884 28.1944 8.33335 27.7083 8.33335C26.9444 8.33335 26.302 8.59377 25.7812 9.1146C25.2603 9.63544 24.9999 10.2778 24.9999 11.0417C24.9999 11.9792 25.2777 12.8212 25.8333 13.5677C26.3888 14.3143 26.9964 15.0174 27.6562 15.6771L33.3333 21.25ZM14.5833 38.5417L29.0624 42.5L41.4582 38.6459C41.2846 38.3334 41.0329 38.0643 40.703 37.8386C40.3732 37.6129 39.9999 37.5 39.5833 37.5H29.0624C28.1249 37.5 27.3784 37.4653 26.8228 37.3959C26.2673 37.3264 25.6944 37.1875 25.1041 36.9792L20.2603 35.3646L21.4062 31.3021L25.6249 32.7084C26.2152 32.882 26.9096 33.0209 27.7083 33.125C28.5069 33.2292 29.6874 33.2986 31.2499 33.3334C31.2499 32.9514 31.1371 32.5868 30.9114 32.2396C30.6857 31.8924 30.4166 31.6667 30.1041 31.5625L17.9166 27.0834H14.5833V38.5417ZM2.08325 45.8334V22.9167H17.9166C18.1596 22.9167 18.4027 22.9427 18.6458 22.9948C18.8888 23.0469 19.1145 23.1077 19.3228 23.1771L31.5624 27.7084C32.7083 28.125 33.6371 28.8542 34.3489 29.8959C35.0607 30.9375 35.4166 32.0834 35.4166 33.3334H39.5833C41.3194 33.3334 42.7951 33.9063 44.0103 35.0521C45.2256 36.1979 45.8333 37.7084 45.8333 39.5834V41.6667L29.1666 46.875L14.5833 42.8125V45.8334H2.08325ZM6.24992 41.6667H10.4166V27.0834H6.24992V41.6667Z" fill="#FEFEFE"/>
</g>
</svg>
