<svg width="25" height="20" viewBox="0 0 25 20" fill="none" xmlns="http://www.w3.org/2000/svg">
<path fill-rule="evenodd" clip-rule="evenodd" d="M1.01473 1.54518C0.136047 2.42386 0.136047 3.83808 0.136047 6.6665V13.3332C0.136047 16.1616 0.136047 17.5758 1.01473 18.4545C1.89341 19.3332 3.30762 19.3332 6.13604 19.3332H18.9524C21.7808 19.3332 23.195 19.3332 24.0737 18.4545C24.9524 17.5758 24.9524 16.1616 24.9524 13.3332V6.6665C24.9524 3.83808 24.9524 2.42386 24.0737 1.54518C23.195 0.666504 21.7808 0.666504 18.9524 0.666504H6.13605C3.30762 0.666504 1.89341 0.666504 1.01473 1.54518ZM21.6569 5.45785C21.3576 4.99371 20.7382 4.85976 20.2741 5.15902L12.5446 10.1434L4.81409 5.15902C4.34993 4.85982 3.73053 4.9937 3.43128 5.45785C3.13208 5.92201 3.26596 6.54141 3.73011 6.84066L11.4606 11.8241L11.5866 11.8993C12.2257 12.248 13.0091 12.2227 13.6276 11.8241L21.358 6.84066C21.8222 6.54139 21.9561 5.92202 21.6569 5.45785Z" fill="#222222"/>
</svg>
