<svg width="13" height="13" viewBox="0 0 13 13" fill="none" xmlns="http://www.w3.org/2000/svg">
<path d="M5.34573 3.20036C5.80822 2.04739 6.03946 1.4709 6.41515 1.391C6.51394 1.36999 6.61604 1.36999 6.71482 1.391C7.09052 1.4709 7.32176 2.04739 7.78425 3.20036C8.04725 3.85604 8.17876 4.18387 8.42482 4.40685C8.49384 4.4694 8.56876 4.5251 8.64853 4.57318C8.93293 4.74459 9.28796 4.77639 9.99802 4.83998C11.2 4.94763 11.801 5.00146 11.9846 5.34413C12.0226 5.4151 12.0484 5.49195 12.061 5.57146C12.1219 5.9554 11.68 6.35737 10.7964 7.16132L10.551 7.38457C10.1379 7.76042 9.93131 7.94835 9.81184 8.18288C9.74017 8.32357 9.69211 8.47509 9.66959 8.63136C9.63206 8.89188 9.69254 9.16451 9.81352 9.70977L9.85674 9.90458C10.0737 10.8824 10.1822 11.3713 10.0468 11.6116C9.92513 11.8275 9.70108 11.9657 9.45359 11.9775C9.17806 11.9907 8.78982 11.6743 8.01336 11.0416C7.50179 10.6248 7.24601 10.4164 6.96206 10.3349C6.70258 10.2605 6.4274 10.2605 6.16792 10.3349C5.88397 10.4164 5.62818 10.6248 5.11662 11.0416C4.34016 11.6743 3.95192 11.9907 3.67639 11.9775C3.4289 11.9657 3.20485 11.8275 3.08322 11.6116C2.94781 11.3713 3.05628 10.8824 3.27323 9.90458L3.31646 9.70977C3.43743 9.16451 3.49792 8.89188 3.46039 8.63136C3.43787 8.47509 3.38981 8.32357 3.31814 8.18288C3.19866 7.94835 2.9921 7.76042 2.57898 7.38457L2.33359 7.16132C1.44993 6.35737 1.00811 5.9554 1.06895 5.57146C1.08155 5.49195 1.1074 5.4151 1.14541 5.34413C1.32894 5.00146 1.92995 4.94763 3.13195 4.83998C3.84202 4.77639 4.19705 4.74459 4.48145 4.57318C4.56122 4.5251 4.63614 4.4694 4.70516 4.40685C4.95122 4.18387 5.08273 3.85604 5.34573 3.20036Z" fill="#DA9100" stroke="#DA9100" stroke-width="1.08045"/>
</svg>
