<svg width="13" height="13" viewBox="0 0 13 13" fill="none" xmlns="http://www.w3.org/2000/svg">
<path d="M5.08572 3.20036C5.54821 2.04739 5.77945 1.4709 6.15514 1.391C6.25393 1.36999 6.35603 1.36999 6.45481 1.391C6.83051 1.4709 7.06175 2.04739 7.52424 3.20036C7.78724 3.85604 7.91875 4.18387 8.16481 4.40685C8.23383 4.4694 8.30875 4.5251 8.38852 4.57318C8.67292 4.74459 9.02795 4.77639 9.73801 4.83998C10.94 4.94763 11.541 5.00146 11.7246 5.34413C11.7626 5.4151 11.7884 5.49195 11.801 5.57146C11.8619 5.9554 11.42 6.35737 10.5364 7.16132L10.291 7.38457C9.87787 7.76042 9.6713 7.94835 9.55183 8.18288C9.48016 8.32357 9.4321 8.47509 9.40958 8.63136C9.37205 8.89188 9.43253 9.16451 9.55351 9.70977L9.59673 9.90458C9.81369 10.8824 9.92216 11.3713 9.78675 11.6116C9.66512 11.8275 9.44107 11.9657 9.19358 11.9775C8.91805 11.9907 8.52981 11.6743 7.75335 11.0416C7.24178 10.6248 6.986 10.4164 6.70205 10.3349C6.44257 10.2605 6.16739 10.2605 5.90791 10.3349C5.62396 10.4164 5.36817 10.6248 4.85661 11.0416C4.08015 11.6743 3.69191 11.9907 3.41638 11.9775C3.16889 11.9657 2.94484 11.8275 2.82321 11.6116C2.6878 11.3713 2.79627 10.8824 3.01322 9.90458L3.05645 9.70977C3.17742 9.16451 3.23791 8.89188 3.20038 8.63136C3.17786 8.47509 3.1298 8.32357 3.05813 8.18288C2.93865 7.94835 2.73209 7.76042 2.31897 7.38457L2.07358 7.16132C1.18992 6.35737 0.748097 5.9554 0.808943 5.57146C0.821545 5.49195 0.847389 5.4151 0.8854 5.34413C1.06893 5.00146 1.66994 4.94763 2.87195 4.83998C3.58201 4.77639 3.93704 4.74459 4.22144 4.57318C4.30121 4.5251 4.37613 4.4694 4.44515 4.40685C4.69121 4.18387 4.82272 3.85604 5.08572 3.20036Z" fill="#141414" fill-opacity="0.25" stroke="#141414" stroke-opacity="0.25" stroke-width="1.08045"/>
</svg>
